# xmcd
#
# Track frame offsets: 
#        187
#        15152
#        28312
#        42907
#        57845
#        77447
#        93357
#        106067
#        119810
#        137247
#
# Disc length: 2068 seconds
#
# Revision: 7
# Processed by: cddbd v1.5.2PL0 Copyright (c) Steve Scherf et al.
# Submitted via: ExactAudioCopy v0.99pb4
#
DISCID=7908120a
DTITLE=John Anderson - Seminole Wind
DYEAR=1992
DGENRE=Country
TTITLE0=Who Got Our Love
TTITLE1=Straight Tequila Night
TTITLE2=Last Night I Laid Your Memory To Rest
TTITLE3=Let Go Of The Stone
TTITLE4=Look Away
TTITLE5=Steamy Windows
TTITLE6=Hillbilly Hollywood
TTITLE7=Cold Day In Hell
TTITLE8=When It Comes To You 
TTITLE9=Seminole Wind
EXTD=YEAR: 1992
EXTT0=
EXTT1=
EXTT2=
EXTT3=
EXTT4=
EXTT5=
EXTT6=
EXTT7=
EXTT8=
EXTT9=
PLAYORDER=
